# Blender v2.76 (sub 0) OBJ File: ''
# www.blender.org
mtllib number_2.mtl
o Text_Number_2
v 0.218002 0.093000 0.000000
v -0.042998 0.093000 0.000000
v -0.006896 0.136478 0.000000
v 0.025484 0.176657 0.000000
v 0.054252 0.213906 0.000000
v 0.079521 0.248593 0.000000
v 0.101401 0.281085 0.000000
v 0.120002 0.311750 0.000000
v 0.135438 0.340957 0.000000
v 0.147817 0.369074 0.000000
v 0.157252 0.396469 0.000000
v 0.163854 0.423509 0.000000
v 0.167734 0.450564 0.000000
v 0.169002 0.478000 0.000000
v 0.167259 0.508660 0.000000
v 0.162137 0.537528 0.000000
v 0.153799 0.564438 0.000000
v 0.142410 0.589222 0.000000
v 0.128132 0.611715 0.000000
v 0.111127 0.631750 0.000000
v 0.091561 0.649160 0.000000
v 0.069595 0.663778 0.000000
v 0.045393 0.675438 0.000000
v 0.019118 0.683972 0.000000
v -0.009066 0.689215 0.000000
v -0.038998 0.691000 0.000000
v -0.052669 0.690561 0.000000
v -0.066201 0.689241 0.000000
v -0.079623 0.687031 0.000000
v -0.092961 0.683926 0.000000
v -0.106243 0.679918 0.000000
v -0.119498 0.675000 0.000000
v -0.132752 0.669166 0.000000
v -0.146035 0.662407 0.000000
v -0.159373 0.654719 0.000000
v -0.172794 0.646093 0.000000
v -0.186326 0.636522 0.000000
v -0.199998 0.626000 0.000000
v -0.199998 0.503000 0.000000
v -0.186349 0.519515 0.000000
v -0.172896 0.534120 0.000000
v -0.159623 0.546906 0.000000
v -0.146516 0.557963 0.000000
v -0.133562 0.567381 0.000000
v -0.120748 0.575250 0.000000
v -0.108058 0.581661 0.000000
v -0.095479 0.586704 0.000000
v -0.082998 0.590469 0.000000
v -0.070599 0.593046 0.000000
v -0.058271 0.594527 0.000000
v -0.045998 0.595000 0.000000
v -0.029621 0.593914 0.000000
v -0.014067 0.590727 0.000000
v 0.000549 0.585547 0.000000
v 0.014114 0.578481 0.000000
v 0.026511 0.569638 0.000000
v 0.037627 0.559125 0.000000
v 0.047348 0.547049 0.000000
v 0.055558 0.533518 0.000000
v 0.062143 0.518641 0.000000
v 0.066989 0.502523 0.000000
v 0.069980 0.485274 0.000000
v 0.071002 0.467000 0.000000
v 0.070669 0.453204 0.000000
v 0.069669 0.440213 0.000000
v 0.068002 0.427875 0.000000
v 0.065669 0.416037 0.000000
v 0.062669 0.404546 0.000000
v 0.059002 0.393250 0.000000
v 0.054669 0.381995 0.000000
v 0.049669 0.370630 0.000000
v 0.044002 0.359000 0.000000
v 0.037669 0.346954 0.000000
v 0.030669 0.334338 0.000000
v 0.023002 0.321000 0.000000
v 0.007588 0.295763 0.000000
v -0.009484 0.269685 0.000000
v -0.027951 0.242969 0.000000
v -0.047553 0.215815 0.000000
v -0.068031 0.188425 0.000000
v -0.089123 0.161000 0.000000
v -0.110569 0.133742 0.000000
v -0.132109 0.106852 0.000000
v -0.153482 0.080531 0.000000
v -0.174428 0.054981 0.000000
v -0.194687 0.030404 0.000000
v -0.213998 0.007000 0.000000
v -0.213998 0.000000 0.000000
v 0.218002 0.000000 0.000000
vn 0.000000 -0.000000 1.000000
usemtl None
s off
f 27//1 25//1 26//1
f 28//1 25//1 27//1
f 29//1 25//1 28//1
f 29//1 24//1 25//1
f 30//1 24//1 29//1
f 30//1 23//1 24//1
f 31//1 23//1 30//1
f 32//1 23//1 31//1
f 32//1 22//1 23//1
f 33//1 22//1 32//1
f 34//1 22//1 33//1
f 34//1 21//1 22//1
f 35//1 21//1 34//1
f 36//1 21//1 35//1
f 36//1 20//1 21//1
f 37//1 20//1 36//1
f 38//1 20//1 37//1
f 38//1 19//1 20//1
f 39//1 40//1 38//1
f 40//1 41//1 38//1
f 41//1 42//1 38//1
f 42//1 43//1 38//1
f 43//1 44//1 38//1
f 44//1 45//1 38//1
f 45//1 46//1 38//1
f 46//1 47//1 38//1
f 47//1 48//1 38//1
f 48//1 49//1 38//1
f 49//1 50//1 38//1
f 50//1 19//1 38//1
f 50//1 51//1 19//1
f 51//1 18//1 19//1
f 52//1 18//1 51//1
f 53//1 18//1 52//1
f 54//1 18//1 53//1
f 54//1 17//1 18//1
f 55//1 17//1 54//1
f 56//1 17//1 55//1
f 57//1 17//1 56//1
f 57//1 16//1 17//1
f 58//1 16//1 57//1
f 59//1 16//1 58//1
f 59//1 15//1 16//1
f 60//1 15//1 59//1
f 61//1 15//1 60//1
f 61//1 14//1 15//1
f 62//1 14//1 61//1
f 63//1 14//1 62//1
f 63//1 13//1 14//1
f 64//1 13//1 63//1
f 65//1 13//1 64//1
f 65//1 12//1 13//1
f 66//1 12//1 65//1
f 67//1 12//1 66//1
f 67//1 11//1 12//1
f 68//1 11//1 67//1
f 69//1 11//1 68//1
f 69//1 10//1 11//1
f 70//1 10//1 69//1
f 71//1 10//1 70//1
f 72//1 10//1 71//1
f 72//1 9//1 10//1
f 73//1 9//1 72//1
f 74//1 9//1 73//1
f 74//1 8//1 9//1
f 75//1 8//1 74//1
f 76//1 8//1 75//1
f 76//1 7//1 8//1
f 77//1 7//1 76//1
f 77//1 6//1 7//1
f 78//1 6//1 77//1
f 78//1 5//1 6//1
f 79//1 5//1 78//1
f 80//1 5//1 79//1
f 80//1 4//1 5//1
f 81//1 4//1 80//1
f 81//1 3//1 4//1
f 82//1 3//1 81//1
f 82//1 2//1 3//1
f 83//1 2//1 82//1
f 84//1 2//1 83//1
f 84//1 1//1 2//1
f 84//1 89//1 1//1
f 85//1 89//1 84//1
f 86//1 89//1 85//1
f 87//1 89//1 86//1
f 88//1 89//1 87//1
