# Blender v2.76 (sub 0) OBJ File: ''
# www.blender.org
mtllib number_3.mtl
o Text_Number_3
v -0.166998 0.569000 0.000000
v -0.155549 0.573982 0.000000
v -0.144655 0.578440 0.000000
v -0.134248 0.582391 0.000000
v -0.124257 0.585852 0.000000
v -0.114613 0.588841 0.000000
v -0.105248 0.591375 0.000000
v -0.096090 0.593472 0.000000
v -0.087072 0.595148 0.000000
v -0.078123 0.596422 0.000000
v -0.069173 0.597310 0.000000
v -0.060155 0.597830 0.000000
v -0.050998 0.598000 0.000000
v -0.033551 0.597196 0.000000
v -0.017257 0.594819 0.000000
v -0.002185 0.590922 0.000000
v 0.011595 0.585556 0.000000
v 0.024014 0.578773 0.000000
v 0.035002 0.570625 0.000000
v 0.044491 0.561165 0.000000
v 0.052410 0.550444 0.000000
v 0.058690 0.538516 0.000000
v 0.063262 0.525431 0.000000
v 0.066056 0.511241 0.000000
v 0.067002 0.496000 0.000000
v 0.066065 0.481028 0.000000
v 0.063252 0.467139 0.000000
v 0.058565 0.454375 0.000000
v 0.052002 0.442778 0.000000
v 0.043565 0.432389 0.000000
v 0.033252 0.423250 0.000000
v 0.021065 0.415403 0.000000
v 0.007002 0.408889 0.000000
v -0.008935 0.403750 0.000000
v -0.026748 0.400028 0.000000
v -0.046435 0.397764 0.000000
v -0.067998 0.397000 0.000000
v -0.067998 0.307000 0.000000
v -0.044748 0.307087 0.000000
v -0.023502 0.304944 0.000000
v -0.004263 0.300719 0.000000
v 0.012965 0.294556 0.000000
v 0.028180 0.286601 0.000000
v 0.041377 0.277000 0.000000
v 0.052554 0.265899 0.000000
v 0.061706 0.253444 0.000000
v 0.068831 0.239781 0.000000
v 0.073924 0.225056 0.000000
v 0.076982 0.209413 0.000000
v 0.078002 0.193000 0.000000
v 0.077118 0.176991 0.000000
v 0.074507 0.162009 0.000000
v 0.070237 0.148125 0.000000
v 0.064373 0.135407 0.000000
v 0.056981 0.123926 0.000000
v 0.048127 0.113750 0.000000
v 0.037878 0.104949 0.000000
v 0.026299 0.097593 0.000000
v 0.013456 0.091750 0.000000
v -0.000585 0.087491 0.000000
v -0.015759 0.084884 0.000000
v -0.031998 0.084000 0.000000
v -0.044499 0.084355 0.000000
v -0.057007 0.085421 0.000000
v -0.069529 0.087203 0.000000
v -0.082072 0.089704 0.000000
v -0.094642 0.092927 0.000000
v -0.107248 0.096875 0.000000
v -0.119895 0.101553 0.000000
v -0.132590 0.106963 0.000000
v -0.145341 0.113109 0.000000
v -0.158155 0.119995 0.000000
v -0.171038 0.127624 0.000000
v -0.183998 0.136000 0.000000
v -0.183998 0.030000 0.000000
v -0.171749 0.023981 0.000000
v -0.159507 0.018431 0.000000
v -0.147279 0.013359 0.000000
v -0.135072 0.008778 0.000000
v -0.122892 0.004696 0.000000
v -0.110748 0.001125 0.000000
v -0.098645 -0.001925 -0.000000
v -0.086590 -0.004444 -0.000000
v -0.074591 -0.006422 -0.000000
v -0.062655 -0.007847 -0.000000
v -0.050788 -0.008710 -0.000000
v -0.038998 -0.009000 -0.000000
v -0.008299 -0.007257 -0.000000
v 0.020678 -0.002139 -0.000000
v 0.047752 0.006188 0.000000
v 0.072743 0.017556 0.000000
v 0.095470 0.031799 0.000000
v 0.115752 0.048750 0.000000
v 0.133410 0.068243 0.000000
v 0.148262 0.090111 0.000000
v 0.160127 0.114188 0.000000
v 0.168826 0.140306 0.000000
v 0.174178 0.168299 0.000000
v 0.176002 0.198000 0.000000
v 0.175373 0.215491 0.000000
v 0.173465 0.232847 0.000000
v 0.170252 0.249891 0.000000
v 0.165706 0.266444 0.000000
v 0.159799 0.282332 0.000000
v 0.152502 0.297375 0.000000
v 0.143789 0.311398 0.000000
v 0.133632 0.324222 0.000000
v 0.122002 0.335672 0.000000
v 0.108873 0.345569 0.000000
v 0.094215 0.353738 0.000000
v 0.078002 0.360000 0.000000
v 0.092739 0.368701 0.000000
v 0.105975 0.377861 0.000000
v 0.117752 0.387563 0.000000
v 0.128114 0.397889 0.000000
v 0.137100 0.408924 0.000000
v 0.144752 0.420750 0.000000
v 0.151114 0.433451 0.000000
v 0.156225 0.447111 0.000000
v 0.160127 0.461813 0.000000
v 0.162864 0.477639 0.000000
v 0.164475 0.494674 0.000000
v 0.165002 0.513000 0.000000
v 0.163377 0.539190 0.000000
v 0.158586 0.563685 0.000000
v 0.150752 0.586375 0.000000
v 0.140002 0.607148 0.000000
v 0.126461 0.625894 0.000000
v 0.110252 0.642500 0.000000
v 0.091502 0.656857 0.000000
v 0.070336 0.668852 0.000000
v 0.046877 0.678375 0.000000
v 0.021252 0.685315 0.000000
v -0.006414 0.689560 0.000000
v -0.035998 0.691000 0.000000
v -0.048506 0.690811 0.000000
v -0.060562 0.690241 0.000000
v -0.072216 0.689281 0.000000
v -0.083516 0.687926 0.000000
v -0.094510 0.686168 0.000000
v -0.105248 0.684000 0.000000
v -0.115776 0.681415 0.000000
v -0.126146 0.678407 0.000000
v -0.136404 0.674969 0.000000
v -0.146599 0.671093 0.000000
v -0.156781 0.666772 0.000000
v -0.166998 0.662000 0.000000
vn -0.000000 -0.000000 1.000000
usemtl None
s off
f 136//1 134//1 135//1
f 137//1 134//1 136//1
f 138//1 134//1 137//1
f 138//1 133//1 134//1
f 139//1 133//1 138//1
f 140//1 133//1 139//1
f 141//1 133//1 140//1
f 141//1 132//1 133//1
f 142//1 132//1 141//1
f 143//1 132//1 142//1
f 144//1 132//1 143//1
f 144//1 131//1 132//1
f 145//1 131//1 144//1
f 146//1 131//1 145//1
f 146//1 130//1 131//1
f 147//1 130//1 146//1
f 1//1 2//1 147//1
f 2//1 3//1 147//1
f 3//1 4//1 147//1
f 4//1 5//1 147//1
f 5//1 130//1 147//1
f 5//1 6//1 130//1
f 6//1 7//1 130//1
f 7//1 129//1 130//1
f 7//1 8//1 129//1
f 8//1 9//1 129//1
f 9//1 128//1 129//1
f 9//1 10//1 128//1
f 10//1 11//1 128//1
f 11//1 12//1 128//1
f 12//1 127//1 128//1
f 12//1 13//1 127//1
f 13//1 14//1 127//1
f 14//1 126//1 127//1
f 15//1 126//1 14//1
f 16//1 126//1 15//1
f 17//1 126//1 16//1
f 17//1 125//1 126//1
f 18//1 125//1 17//1
f 19//1 125//1 18//1
f 20//1 125//1 19//1
f 20//1 124//1 125//1
f 21//1 124//1 20//1
f 22//1 124//1 21//1
f 22//1 123//1 124//1
f 23//1 123//1 22//1
f 24//1 123//1 23//1
f 24//1 122//1 123//1
f 25//1 122//1 24//1
f 26//1 122//1 25//1
f 26//1 121//1 122//1
f 27//1 121//1 26//1
f 27//1 120//1 121//1
f 28//1 120//1 27//1
f 28//1 119//1 120//1
f 29//1 119//1 28//1
f 29//1 118//1 119//1
f 30//1 118//1 29//1
f 30//1 117//1 118//1
f 31//1 117//1 30//1
f 32//1 117//1 31//1
f 32//1 116//1 117//1
f 33//1 116//1 32//1
f 33//1 115//1 116//1
f 34//1 115//1 33//1
f 35//1 115//1 34//1
f 36//1 115//1 35//1
f 36//1 114//1 115//1
f 37//1 114//1 36//1
f 38//1 114//1 37//1
f 38//1 113//1 114//1
f 38//1 112//1 113//1
f 38//1 111//1 112//1
f 38//1 110//1 111//1
f 38//1 109//1 110//1
f 38//1 108//1 109//1
f 38//1 107//1 108//1
f 38//1 106//1 107//1
f 38//1 39//1 106//1
f 39//1 105//1 106//1
f 40//1 105//1 39//1
f 41//1 105//1 40//1
f 42//1 105//1 41//1
f 42//1 104//1 105//1
f 43//1 104//1 42//1
f 44//1 104//1 43//1
f 44//1 103//1 104//1
f 45//1 103//1 44//1
f 45//1 102//1 103//1
f 46//1 102//1 45//1
f 47//1 102//1 46//1
f 47//1 101//1 102//1
f 48//1 101//1 47//1
f 48//1 100//1 101//1
f 49//1 100//1 48//1
f 49//1 99//1 100//1
f 50//1 99//1 49//1
f 50//1 98//1 99//1
f 51//1 98//1 50//1
f 52//1 98//1 51//1
f 52//1 97//1 98//1
f 53//1 97//1 52//1
f 54//1 97//1 53//1
f 54//1 96//1 97//1
f 75//1 73//1 74//1
f 55//1 96//1 54//1
f 75//1 72//1 73//1
f 56//1 96//1 55//1
f 75//1 71//1 72//1
f 56//1 95//1 96//1
f 57//1 95//1 56//1
f 75//1 70//1 71//1
f 75//1 69//1 70//1
f 58//1 95//1 57//1
f 75//1 68//1 69//1
f 59//1 95//1 58//1
f 75//1 67//1 68//1
f 75//1 66//1 67//1
f 60//1 95//1 59//1
f 60//1 94//1 95//1
f 75//1 65//1 66//1
f 61//1 94//1 60//1
f 75//1 64//1 65//1
f 75//1 63//1 64//1
f 62//1 94//1 61//1
f 75//1 62//1 63//1
f 75//1 94//1 62//1
f 75//1 93//1 94//1
f 75//1 92//1 93//1
f 75//1 91//1 92//1
f 76//1 91//1 75//1
f 77//1 91//1 76//1
f 78//1 91//1 77//1
f 78//1 90//1 91//1
f 79//1 90//1 78//1
f 80//1 90//1 79//1
f 80//1 89//1 90//1
f 81//1 89//1 80//1
f 82//1 89//1 81//1
f 83//1 89//1 82//1
f 83//1 88//1 89//1
f 84//1 88//1 83//1
f 85//1 88//1 84//1
f 85//1 87//1 88//1
f 86//1 87//1 85//1
